<svg version="1.2" baseProfile="tiny" xmlns="http://www.w3.org/2000/svg"  xml:space="preserve" viewBox="0 0 119.045 51.355" >
  <g transform="translate(-205.712 -187.394)">
    <g>
      <g fill="#ffffff">
        <path d="M205.712 187.943h11.3a10.367 10.367 0 0 1 7.473 2.627 7.265 7.265 0 0 1 2.029 5.184v.076c0 4.356-3 6.91-7.136 7.662l8.074 10.74h-3.641l-7.624-10.214h-7.511v10.212h-2.966Zm11.04 13.406c3.944 0 6.761-2.029 6.761-5.407v-.077c0-3.229-2.48-5.182-6.724-5.182h-8.111v10.666Z"/>
        <path d="m274.161 210.4 1.84-2.18a12.514 12.514 0 0 0 9.013 3.718c3.53 0 5.859-1.878 5.859-4.467v-.077c0-2.44-1.315-3.829-6.836-4.993-6.045-1.314-8.825-3.269-8.825-7.587v-.075c0-4.129 3.644-7.173 8.639-7.173a13.712 13.712 0 0 1 9.237 3.23l-1.726 2.291a11.542 11.542 0 0 0-7.588-2.855c-3.415 0-5.593 1.878-5.593 4.244v.075c0 2.48 1.352 3.869 7.133 5.107 5.859 1.277 8.563 3.418 8.563 7.436v.077c0 4.5-3.755 7.433-8.974 7.433a15.389 15.389 0 0 1-10.742-4.204Z"/>
        <path d="M305.567 187.943h19v2.7h-16.034v8.974h14.349v2.7h-14.349v9.2h16.224v2.7h-19.19Z"/>
      </g>
    </g>
    <g>
      <g fill="#ffffff">
        <path d="M205.712 223.683h6.457c3.811 0 6.265 1.959 6.265 5.294v.044c0 3.551-2.734 5.424-6.48 5.424h-2.066v4.306h-4.176Zm6.156 7.49c1.484 0 2.39-.775 2.39-1.959v-.044c0-1.291-.906-1.98-2.411-1.98h-1.959v3.982Z"/>
        <path d="M221.814 223.683h7.125a6.586 6.586 0 0 1 4.908 1.636 4.667 4.667 0 0 1 1.334 3.508v.044a4.764 4.764 0 0 1-3.1 4.627l3.594 5.253h-4.821l-3.036-4.564h-1.829v4.564h-4.175Zm6.931 7.233c1.421 0 2.24-.689 2.24-1.788v-.041c0-1.184-.862-1.788-2.26-1.788h-2.734v3.617Z"/>
        <path d="M238.999 223.683h4.2v15.067h-4.2Z"/>
        <path d="M247.568 223.683h4.413l3.595 5.832 3.594-5.832h4.413v15.067h-4.155v-8.653l-3.852 5.9h-.087l-3.832-5.855v8.61h-4.089Z"/>
        <path d="M273.08 223.576h4.026l6.414 15.174h-4.478l-1.1-2.691h-5.812l-1.077 2.691h-4.386Zm3.659 9.232-1.679-4.283-1.7 4.283Z"/>
        <path d="M286.689 223.683h4.2v15.067h-4.2Z"/>
        <path d="M295.258 223.683h7.125a6.586 6.586 0 0 1 4.908 1.636 4.668 4.668 0 0 1 1.335 3.508v.044a4.764 4.764 0 0 1-3.1 4.627l3.595 5.253h-4.822l-3.035-4.564h-1.83v4.564h-4.176Zm6.931 7.233c1.421 0 2.24-.689 2.24-1.788v-.041c0-1.184-.862-1.788-2.26-1.788h-2.735v3.617Z"/>
        <path d="M312.352 223.683h12.118v3.551h-7.989v2.281h7.233v3.293h-7.233v2.39h8.1v3.551h-12.229Z"/>
      </g>
    </g>
    <circle cx="13.69" cy="13.69" r="13.69" fill="#e03357" transform="translate(237.014 187.394)"/>
  </g>
</svg>
